<?xml version="1.0" standalone="no"?>
<!DOCTYPE svg PUBLIC "-//W3C//DTD SVG 20010904//EN"
 "http://www.w3.org/TR/2001/REC-SVG-20010904/DTD/svg10.dtd">
<svg version="1.0" xmlns="http://www.w3.org/2000/svg"
 width="470.000000pt" height="470.000000pt" viewBox="0 0 470.000000 470.000000"
 preserveAspectRatio="xMidYMid meet">
<metadata>
Created by potrace 1.11, written by Peter Selinger 2001-2013
</metadata>
<g transform="translate(0.000000,470.000000) scale(0.100000,-0.100000)"
fill="#000000" stroke="none">
<path d="M2339 3991 l-23 -19 29 3 c16 2 36 0 44 -4 19 -10 43 -3 35 10 -3 5
1 9 8 9 9 0 9 3 -2 10 -24 16 -66 11 -91 -9z"/>
<path d="M2450 3985 c0 -3 25 -19 55 -36 30 -17 55 -32 55 -34 0 -2 -19 -1
-42 1 -41 5 -82 -4 -158 -31 -44 -16 -47 -26 -10 -47 17 -9 30 -13 30 -8 0 6
10 10 23 10 18 0 19 -2 7 -10 -10 -6 -11 -10 -2 -10 6 0 12 -7 12 -15 0 -11
-11 -15 -39 -15 -22 0 -43 -4 -46 -10 -3 -5 -20 -10 -37 -10 -37 0 -33 9 5 12
14 1 23 6 20 12 -3 5 2 15 12 23 18 12 17 13 -8 13 -15 0 -27 4 -27 9 0 11
-31 24 -39 16 -3 -3 1 -10 8 -14 10 -6 6 -12 -15 -22 -31 -15 -74 -14 -74 1 0
5 6 7 14 4 7 -3 16 2 19 10 7 18 -27 23 -38 6 -3 -5 -16 -10 -27 -10 -12 0
-18 -3 -15 -7 9 -9 -44 -35 -60 -29 -7 3 -13 1 -13 -3 0 -5 6 -12 13 -14 6 -3
3 -6 -7 -6 -11 -1 -28 -9 -38 -18 -10 -9 -37 -18 -58 -19 -41 -2 -54 9 -22 19
24 8 72 38 97 61 25 23 31 27 -145 -74 -143 -82 -184 -108 -146 -94 14 6 17 4
11 -6 -6 -10 0 -12 24 -8 21 3 31 0 31 -9 0 -7 4 -13 9 -13 5 0 7 9 4 20 -3
12 0 20 7 20 9 0 8 5 -3 18 -16 17 -14 19 28 40 25 12 47 22 48 22 1 0 2 -15
3 -33 1 -17 -1 -26 -3 -19 -3 6 -9 9 -14 6 -6 -3 -5 -11 2 -20 6 -8 8 -14 3
-15 -39 -3 -73 -19 -41 -19 10 0 17 -4 17 -10 0 -5 -7 -7 -15 -4 -8 4 -15 2
-15 -4 0 -16 -33 -24 -42 -10 -6 10 -8 10 -8 1 0 -7 -4 -13 -10 -13 -5 0 -7 8
-3 18 4 11 -1 8 -15 -8 -12 -14 -21 -19 -22 -12 0 7 -5 10 -11 7 -6 -4 -8 -13
-5 -21 4 -10 -2 -14 -18 -14 -16 0 -26 -7 -30 -22 -6 -21 -7 -21 -16 -6 -9 15
-13 15 -38 2 -15 -7 -33 -14 -39 -14 -7 0 -13 -6 -13 -14 0 -8 -5 -18 -12 -22
-7 -5 -9 -2 -4 7 4 8 2 7 -6 -2 -7 -9 -23 -19 -36 -23 -12 -4 -22 -15 -23 -24
0 -9 -3 -12 -5 -6 -6 15 -64 5 -71 -12 -3 -8 -11 -14 -19 -14 -8 0 -14 -4 -14
-10 0 -5 -9 -10 -19 -10 -10 0 -34 -15 -52 -32 -21 -20 -52 -37 -79 -43 -25
-6 -44 -16 -43 -22 3 -13 -32 -27 -46 -19 -5 3 -7 -3 -4 -14 4 -14 0 -20 -10
-20 -9 0 -21 -9 -27 -20 -13 -25 -31 -27 -24 -2 5 14 4 15 -5 2 -6 -8 -11 -22
-11 -30 0 -22 -36 -41 -65 -34 -16 4 -25 2 -25 -6 0 -7 7 -10 15 -6 22 8 18
-12 -5 -24 -11 -6 -20 -17 -20 -25 0 -18 -9 -19 -46 -5 -23 9 -26 8 -22 -8 3
-10 -1 -27 -10 -38 -11 -14 -13 -15 -9 -3 4 13 1 15 -13 12 -11 -3 -19 -8 -18
-12 2 -22 -5 -31 -27 -31 -14 0 -25 -4 -25 -9 0 -12 -39 -26 -65 -22 -11 1
-25 9 -31 17 -6 8 -20 14 -30 14 -12 1 -5 8 20 20 24 12 49 17 65 14 24 -6 25
-5 7 8 -16 13 -17 16 -3 21 9 3 18 0 21 -9 8 -20 39 -17 65 5 l23 20 -49 -5
-48 -5 53 32 c28 17 52 33 52 36 0 3 -17 -5 -37 -17 -21 -12 -82 -47 -135 -78
-53 -31 -95 -59 -93 -63 3 -4 -3 -13 -13 -20 -15 -13 -16 -12 -3 4 7 9 10 17
6 17 -13 0 -150 -84 -158 -97 -4 -7 -13 -13 -19 -13 -18 0 -231 -122 -255
-146 -12 -13 -33 -24 -45 -26 -55 -8 -98 -196 -98 -430 0 -119 20 -281 39
-317 5 -9 38 -32 73 -52 34 -20 107 -61 161 -93 121 -70 129 -74 121 -50 -8
20 -6 19 16 -10 12 -16 12 -18 1 -11 -9 5 -12 4 -7 -3 3 -6 26 -18 51 -28 25
-9 45 -21 45 -25 0 -5 27 -22 60 -39 33 -17 60 -26 60 -20 0 5 -7 10 -15 10
-8 0 -15 5 -15 11 0 5 5 7 10 4 23 -14 8 19 -21 46 -17 16 -27 29 -22 29 17 0
54 -47 67 -85 13 -37 28 -48 111 -86 17 -8 34 -20 38 -26 4 -7 25 -21 45 -32
20 -10 89 -48 151 -85 63 -36 119 -66 124 -66 5 0 6 19 3 43 -5 41 -5 40 12
-12 14 -45 25 -59 54 -75 21 -12 53 -31 73 -43 25 -16 35 -19 35 -9 0 8 6 16
14 19 10 4 18 -5 25 -26 11 -33 63 -73 80 -62 5 3 16 -3 23 -13 7 -10 20 -22
28 -27 12 -7 11 -3 -3 18 -14 22 -15 30 -5 41 11 11 16 4 28 -38 13 -42 21
-53 46 -61 17 -6 39 -16 48 -24 16 -13 17 -12 11 15 -5 26 -4 26 4 6 16 -35
41 -58 106 -94 33 -19 72 -42 87 -52 l28 -18 -5 33 c-5 33 -4 33 8 -5 9 -27
23 -43 48 -55 18 -9 48 -26 64 -36 24 -16 27 -16 17 -3 -9 11 -11 31 -7 60 3
27 2 38 -3 29 -5 -7 -12 -9 -15 -5 -3 5 1 14 8 21 10 9 15 6 25 -12 7 -13 9
-28 5 -35 -4 -7 1 -14 14 -17 11 -3 30 -20 42 -39 19 -32 22 -33 43 -19 22 15
36 12 36 -7 0 -5 -4 -6 -10 -3 -6 4 -10 -6 -10 -23 0 -22 6 -31 21 -35 12 -3
18 -3 15 0 -3 3 2 12 11 21 14 14 17 14 27 1 12 -17 46 -33 60 -30 5 1 2 -9
-7 -23 -10 -15 -13 -27 -7 -31 6 -3 10 1 10 9 0 8 5 18 11 21 6 4 10 1 8 -6
-3 -29 2 -38 21 -36 21 1 28 31 10 42 -5 3 -10 13 -10 21 0 8 4 13 9 10 16
-11 -15 77 -37 101 -33 37 -38 51 -9 24 14 -12 31 -20 37 -16 14 9 10 102 -6
133 -9 18 -9 29 2 50 7 15 16 57 20 93 6 61 5 67 -16 82 -24 16 -19 40 5 30
10 -3 13 -1 10 9 -3 8 -2 25 4 39 l9 24 11 -28 c8 -21 8 -47 -1 -100 -19 -115
-16 -336 6 -449 11 -54 22 -98 26 -98 4 0 19 9 33 20 14 11 31 20 39 20 7 0
103 52 213 115 110 63 203 115 206 115 16 0 50 -75 48 -104 -2 -17 0 -37 5
-44 10 -17 61 -15 127 6 l57 18 -28 31 c-42 47 -88 183 -62 183 4 0 13 -21 20
-47 21 -78 51 -131 81 -141 18 -6 43 -3 81 8 45 13 51 18 34 23 -27 9 -53 38
-58 64 -2 10 -11 36 -20 56 -8 20 -12 37 -9 37 3 0 0 7 -7 15 -7 8 -24 13 -41
11 -22 -3 -29 1 -29 14 0 10 7 21 16 24 9 4 14 9 11 12 -9 9 -45 -19 -41 -31
3 -7 -2 -18 -11 -25 -14 -12 -16 -12 -14 1 2 13 -3 31 -21 74 -7 15 -9 9 -9
-25 -1 -30 -4 -40 -10 -31 -5 7 -14 10 -20 7 -6 -4 -15 2 -20 15 -9 26 -3 59
11 59 5 0 6 6 1 13 -4 6 -7 21 -6 32 2 12 -4 5 -14 -15 -11 -23 -17 -59 -16
-104 0 -71 -12 -101 -36 -86 -9 5 -6 9 10 13 20 5 21 8 10 19 -11 11 -14 11
-18 0 -4 -10 -8 -10 -21 0 -13 12 -14 8 -8 -27 5 -29 4 -36 -3 -25 -14 20 -14
106 0 150 11 39 15 163 5 179 -4 5 -4 22 0 36 7 29 40 47 92 53 7 1 10 7 7 12
-3 6 1 11 9 11 9 1 21 3 26 4 6 1 15 3 20 4 6 0 10 8 10 16 0 8 10 16 23 17
36 2 41 3 53 10 6 4 19 2 28 -5 13 -10 17 -31 19 -102 1 -50 -2 -108 -6 -130
-8 -40 -8 -40 10 -19 11 12 29 25 41 28 12 4 22 11 22 14 0 4 12 9 26 10 23 2
25 -1 20 -29 -2 -17 -7 -33 -10 -36 -3 -4 1 -11 9 -17 13 -9 11 -11 -9 -11
-23 0 -25 14 -5 40 4 6 -4 10 -22 11 -16 1 -29 -3 -29 -7 0 -5 -7 -6 -15 -3
-8 4 -15 1 -15 -5 0 -6 6 -11 14 -11 8 0 18 -5 21 -10 4 -6 -6 -9 -26 -8 -31
3 -33 1 -35 -32 -3 -48 32 -139 69 -177 57 -61 115 -53 220 29 20 16 51 34 68
40 l31 11 -37 13 c-50 17 -83 49 -111 108 -12 27 -29 53 -36 57 -10 7 -9 9 3
9 9 0 83 39 165 86 82 48 372 215 644 371 272 157 503 294 513 305 28 32 22
73 -15 103 -18 15 -28 29 -23 31 6 2 32 18 60 34 37 22 45 30 33 35 -9 4 -36
-3 -60 -15 l-43 -22 33 34 c37 40 40 61 11 82 -14 9 -18 19 -13 28 5 7 7 20 6
29 -2 9 4 22 13 29 14 12 13 16 -12 36 l-28 22 38 22 c37 22 41 46 7 37 -22
-6 -35 30 -18 50 7 9 7 13 -1 13 -19 0 -12 15 16 32 l28 17 -30 11 -30 12 22
17 c25 21 29 36 20 76 -6 23 -20 37 -62 59 -29 16 -63 30 -75 31 -11 1 -26 8
-33 15 -10 10 -7 10 13 0 74 -38 -19 20 -262 160 -271 157 -273 159 -279 196
-12 70 -62 95 -133 68 -14 -5 -17 -4 -12 4 4 7 1 12 -7 12 -13 0 -27 20 -27
36 0 2 12 2 28 -1 l27 -6 -24 14 c-13 8 -32 12 -43 9 -10 -2 -18 1 -18 7 0 7
-16 10 -42 7 -32 -3 -57 4 -103 26 -82 40 -68 32 -270 150 -263 154 -846 488
-851 488 -2 0 -4 -2 -4 -5z m115 -105 c3 -5 -1 -10 -10 -10 -9 0 -13 5 -10 10
3 6 8 10 10 10 2 0 7 -4 10 -10z m42 4 c-3 -3 -12 -4 -19 -1 -8 3 -5 6 6 6 11
1 17 -2 13 -5z m69 -35 c3 -5 -4 -9 -15 -9 -12 0 -21 5 -21 11 0 5 -5 7 -12 3
-6 -4 -8 -3 -5 4 8 11 44 5 53 -9z m-176 3 c0 -5 -12 -19 -27 -33 -14 -13 -23
-18 -19 -11 4 7 1 12 -8 12 -23 0 -19 15 7 28 27 13 47 15 47 4z m50 -7 c10
-12 9 -16 -5 -21 -16 -6 -34 9 -35 29 0 13 27 8 40 -8z m204 -56 c14 12 76
-21 76 -41 0 -9 -3 -10 -8 -2 -11 17 -62 27 -62 12 0 -9 -3 -9 -12 0 -7 7 -22
12 -35 12 -13 0 -23 5 -23 10 0 6 9 10 20 10 11 0 21 6 21 13 1 6 3 4 6 -6 3
-13 8 -15 17 -8z m-354 -39 c0 -5 -5 -10 -11 -10 -5 0 -7 5 -4 10 3 6 8 10 11
10 2 0 4 -4 4 -10z m286 -15 c-3 -8 -1 -15 4 -15 19 0 10 -16 -10 -17 -11 -1
-19 1 -16 5 2 4 -14 6 -35 6 -33 -2 -38 0 -28 12 6 8 15 11 20 8 5 -3 17 0 26
5 27 15 46 13 39 -4z m254 -46 c0 -5 7 -9 15 -9 8 0 15 -4 15 -8 0 -5 -21 -10
-47 -11 -37 -1 -45 1 -35 11 16 16 15 38 -1 38 -18 0 -80 -31 -89 -44 -4 -6
-27 -11 -53 -11 -30 -1 -55 -9 -77 -25 -17 -12 -28 -18 -24 -11 9 14 2 14 -38
-3 -20 -8 -39 -10 -47 -5 -10 6 -6 11 19 20 30 10 44 29 22 29 -5 0 -10 4 -10
10 0 5 6 7 14 4 7 -3 21 3 31 12 17 17 17 17 11 -6 -7 -24 -6 -24 8 -6 16 20
16 20 16 0 1 -18 1 -18 14 -1 7 9 23 17 35 17 12 0 24 6 27 13 3 9 20 12 54 9
38 -3 51 0 56 12 5 13 11 12 45 -6 21 -11 39 -24 39 -29z m-960 21 c11 -7 5
-10 -23 -10 -23 0 -36 4 -32 10 8 13 35 13 55 0z m530 -25 c0 -3 -18 -4 -40
-3 -43 1 -54 14 -17 20 21 4 57 -7 57 -17z m-698 -27 c-7 -7 -12 -8 -12 -2 0
14 12 26 19 19 2 -3 -1 -11 -7 -17z m438 8 c0 -11 -19 -15 -25 -6 -3 5 1 10 9
10 9 0 16 -2 16 -4z m592 -28 c-7 -7 -12 -8 -12 -2 0 6 3 14 7 17 3 4 9 5 12
2 2 -3 -1 -11 -7 -17z m318 -68 c74 -43 158 -91 185 -108 28 -18 61 -36 74
-42 13 -6 44 -24 68 -40 24 -17 48 -30 52 -30 5 0 15 -8 22 -17 13 -16 12 -17
-4 -4 -9 8 -20 11 -23 8 -4 -3 -13 1 -21 9 -8 8 -19 12 -24 9 -5 -4 -21 5 -36
20 -15 14 -32 24 -38 22 -5 -2 -17 6 -27 17 -16 20 -17 20 -18 2 0 -12 -5 -16
-16 -12 -12 5 -15 2 -10 -9 3 -9 2 -13 -4 -10 -16 10 -11 33 8 38 14 3 12 6
-8 14 -14 6 -32 18 -39 27 -7 9 -19 16 -25 16 -6 0 -5 -4 3 -9 11 -7 11 -10 0
-17 -7 -4 -14 -3 -17 4 -5 17 -93 15 -119 -3 -22 -15 -53 -11 -53 7 0 6 -7 8
-15 4 -9 -3 -15 0 -15 8 0 8 10 16 22 20 22 5 22 6 3 20 -12 9 -24 11 -29 6
-5 -5 -17 -5 -27 1 -14 7 -17 6 -13 -4 6 -16 -48 -43 -65 -32 -6 3 -11 1 -11
-6 0 -9 -4 -9 -15 1 -8 6 -19 9 -25 5 -5 -3 -20 -3 -32 1 -21 6 -21 7 -3 20
10 7 23 11 28 7 9 -5 49 -7 86 -4 5 1 12 10 16 20 3 10 18 24 33 30 15 6 33
20 39 30 10 15 6 20 -33 36 -24 10 -44 22 -44 26 0 13 27 0 170 -81z m-847 43
c12 -30 27 -44 38 -38 10 7 40 -31 37 -46 -2 -7 4 -13 12 -14 8 0 14 -5 13
-10 -1 -6 8 -11 20 -11 12 -1 32 -4 45 -7 15 -4 22 -1 22 9 0 8 6 14 13 14 8
0 7 3 -3 10 -20 13 2 35 26 26 15 -6 15 -9 -5 -30 -16 -16 -19 -25 -10 -28 7
-2 9 -10 5 -16 -8 -13 -36 -17 -36 -4 0 4 -11 8 -25 8 -14 1 -25 -2 -25 -7 0
-5 7 -9 15 -9 8 0 15 -5 15 -11 0 -8 12 -10 35 -6 20 3 35 2 35 -4 0 -6 -4 -7
-10 -4 -5 3 -10 2 -10 -4 0 -6 -7 -8 -15 -5 -11 5 -13 2 -9 -10 9 -24 -8 -19
-55 14 l-42 31 -29 -30 c-17 -16 -30 -40 -30 -53 0 -45 -14 -36 500 -338 91
-53 192 -112 225 -130 33 -18 69 -40 80 -48 19 -13 19 -14 -5 -7 -17 4 -11 -2
18 -20 35 -22 55 -45 37 -45 -6 0 -693 82 -1013 121 -244 29 -254 30 -268 12
-13 -17 -13 -17 -14 3 0 19 -10 22 -147 38 -173 21 -192 24 -172 37 12 7 11 9
-1 9 -8 0 23 23 70 51 l85 52 140 -17 c77 -9 237 -28 355 -42 211 -24 443 -55
569 -75 35 -5 65 -8 68 -6 2 3 -24 20 -59 40 -35 19 -142 79 -238 133 -270
153 -266 151 -290 136 -23 -14 -51 -5 -29 9 9 6 0 9 -26 8 -76 -2 -143 -20
-170 -45 -29 -27 -55 -32 -55 -9 0 15 16 28 94 76 26 16 51 40 54 51 4 18 6
19 11 6 5 -15 14 -12 61 16 30 18 80 47 110 64 l55 31 -28 10 c-31 12 -38 36
-7 26 11 -4 20 -2 20 4 0 10 -14 15 -33 12 -5 -1 -11 8 -14 19 -3 11 -9 20
-14 20 -5 0 -8 3 -7 8 1 4 -3 17 -10 30 -8 14 -9 22 -2 22 6 0 16 -12 23 -27z
m619 -11 c-7 -2 -12 -10 -12 -18 0 -11 -4 -10 -20 3 -19 16 -19 18 -3 24 10 3
25 4 32 1 10 -4 11 -7 3 -10z m-402 -9 c0 -15 -15 -30 -45 -44 -23 -11 -35
-12 -52 -4 -17 9 -20 14 -11 23 15 15 38 16 38 2 0 -15 24 -12 46 6 18 15 18
15 -5 8 -16 -4 -21 -3 -17 5 8 12 46 15 46 4z m-390 -28 c-7 -9 -15 -13 -17
-11 -7 7 7 26 19 26 6 0 6 -6 -2 -15z m750 0 c-7 -8 -9 -15 -4 -15 11 0 -27
-35 -54 -49 -34 -18 -26 4 16 43 37 36 66 50 42 21z m-65 -5 c-3 -5 -10 -10
-16 -10 -5 0 -9 5 -9 10 0 6 7 10 16 10 8 0 12 -4 9 -10z m-985 -4 c0 -3 -4
-8 -10 -11 -5 -3 -10 -1 -10 4 0 6 5 11 10 11 6 0 10 -2 10 -4z m1090 -6 c0
-5 -4 -10 -10 -10 -5 0 -10 5 -10 10 0 6 5 10 10 10 6 0 10 -4 10 -10z m-275
-30 c-3 -5 -10 -10 -16 -10 -5 0 -9 5 -9 10 0 6 7 10 16 10 8 0 12 -4 9 -10z
m95 0 c0 -5 -7 -7 -15 -4 -8 4 -15 8 -15 10 0 2 7 4 15 4 8 0 15 -4 15 -10z
m-610 -31 c0 -5 -7 -6 -16 -2 -14 5 -16 2 -10 -20 3 -14 2 -29 -4 -32 -5 -3
-10 -1 -10 5 0 6 -5 8 -10 5 -6 -4 -8 -10 -5 -15 7 -11 -23 -80 -35 -80 -14 0
-12 16 6 52 13 25 14 32 2 39 -10 7 -10 9 0 9 7 0 22 16 33 35 17 28 24 33 35
24 8 -6 14 -15 14 -20z m110 7 c0 -3 -4 -8 -10 -11 -5 -3 -10 -1 -10 4 0 6 5
11 10 11 6 0 10 -2 10 -4z m450 -16 c13 -11 19 -20 14 -20 -5 0 -2 -5 6 -10 8
-5 11 -10 5 -10 -11 1 -65 46 -65 55 0 11 18 4 40 -15z m-895 0 c4 -6 -9 -10
-32 -10 -28 0 -34 3 -23 10 20 13 47 13 55 0z m1213 -14 c-10 -7 -16 -22 -14
-33 3 -12 -1 -20 -10 -20 -8 0 -14 4 -14 9 0 4 6 8 13 8 8 0 7 4 -3 10 -13 9
-11 13 10 29 14 11 27 17 30 14 3 -2 -3 -10 -12 -17z m-1378 -6 c-7 -4 -21 -5
-32 -2 -13 3 -16 7 -8 12 7 4 21 5 32 2 13 -3 16 -7 8 -12z m930 10 c0 -5 -4
-10 -9 -10 -6 0 -13 5 -16 10 -3 6 1 10 9 10 9 0 16 -4 16 -10z m290 -10 c0
-5 -8 -10 -17 -10 -15 0 -16 2 -3 10 19 12 20 12 20 0z m185 -9 c-3 -6 -11
-11 -17 -11 -6 0 -6 6 2 15 14 17 26 13 15 -4z m-111 0 c3 -5 -1 -11 -9 -15
-9 -3 -15 0 -15 9 0 16 16 20 24 6z m-39 -31 c-3 -5 -12 -10 -18 -10 -7 0 -6
4 3 10 19 12 23 12 15 0z m158 -9 c-4 -18 -43 -38 -43 -23 0 12 15 29 30 35 8
3 16 6 17 6 0 1 -1 -8 -4 -18z m-1579 -13 c-8 -28 -12 -33 -20 -25 -4 4 -2 13
4 20 7 8 9 17 5 20 -3 4 -1 7 6 7 8 0 10 -8 5 -22z m1180 7 c11 -8 15 -15 10
-15 -6 0 -19 7 -30 15 -10 8 -14 14 -9 14 6 0 19 -6 29 -14z m99 -42 c-6 -15
-33 -18 -33 -4 0 6 4 12 10 16 5 3 6 13 3 23 -4 14 -3 13 10 -3 8 -10 13 -25
10 -32z m-51 9 c-10 -3 -10 -7 -1 -18 6 -8 7 -14 3 -14 -12 0 -34 36 -27 43 3
3 12 3 21 -1 11 -4 12 -7 4 -10z m614 6 c4 -6 3 -8 -4 -4 -5 3 -13 0 -15 -6
-3 -8 -6 -6 -6 5 -1 19 14 23 25 5z m-1906 -14 c0 -2 -7 -4 -15 -4 -8 0 -15 4
-15 10 0 5 7 7 15 4 8 -4 15 -8 15 -10z m1130 -5 c0 -5 -4 -9 -8 -9 -5 0 -9 7
-9 15 0 8 4 12 9 9 4 -3 8 -9 8 -15z m245 2 c3 -5 1 -12 -5 -16 -5 -3 -10 1
-10 9 0 18 6 21 15 7z m195 5 c0 -3 -4 -8 -10 -11 -5 -3 -10 -1 -10 4 0 6 5
11 10 11 6 0 10 -2 10 -4z m-1055 -26 c-3 -5 -11 -10 -16 -10 -6 0 -7 5 -4 10
3 6 11 10 16 10 6 0 7 -4 4 -10z m704 -7 c-25 -32 -40 -63 -29 -63 5 0 10 -7
10 -15 0 -17 -16 -20 -25 -4 -4 6 -14 8 -24 5 -13 -5 -12 -3 2 8 15 12 16 18
8 35 -15 28 -14 31 13 31 14 0 28 5 31 10 3 6 11 10 17 10 7 0 6 -7 -3 -17z
m295 1 c3 -9 13 -14 20 -11 8 3 21 -4 30 -18 10 -15 22 -22 31 -19 11 5 13 2
9 -10 -7 -19 -6 -19 -39 -4 -14 6 -25 17 -25 24 0 8 -11 16 -25 20 -14 3 -25
12 -25 20 0 19 16 18 24 -2z m276 -4 c0 -5 -2 -10 -4 -10 -3 0 -8 5 -11 10 -3
6 -1 10 4 10 6 0 11 -4 11 -10z m119 -16 c-10 -9 -22 -12 -34 -7 -17 6 -16 8
10 19 35 14 45 10 24 -12z m-1443 -10 c-11 -7 -22 -12 -25 -9 -2 3 4 12 15 19
10 8 21 12 24 9 3 -2 -4 -11 -14 -19z m-311 6 c3 -5 -3 -10 -15 -10 -12 0 -18
5 -15 10 3 6 10 10 15 10 5 0 12 -4 15 -10z m475 0 c0 -5 -5 -10 -11 -10 -5 0
-7 5 -4 10 3 6 8 10 11 10 2 0 4 -4 4 -10z m1469 -34 c-2 -2 -13 8 -23 22
l-19 27 24 -22 c12 -12 21 -24 18 -27z m196 34 c3 -5 1 -10 -4 -10 -6 0 -11 5
-11 10 0 6 2 10 4 10 3 0 8 -4 11 -10z m-47 -41 c7 -10 19 -16 27 -13 8 4 15
1 15 -6 0 -6 -9 -14 -20 -17 -11 -3 -20 -9 -20 -12 0 -4 -7 -8 -15 -8 -8 0
-15 5 -15 11 0 6 -4 4 -10 -4 -8 -12 -10 -12 -16 3 -3 9 -10 15 -14 12 -5 -3
-12 -1 -15 5 -4 6 -3 10 2 9 20 -4 27 2 13 12 -11 8 -8 9 15 5 28 -6 28 -5 9
6 -12 7 -19 19 -17 25 6 16 41 -1 61 -28z m-1428 -3 c0 -8 5 -16 12 -18 13 -5
2 -28 -13 -28 -6 0 -7 5 -4 10 3 6 2 10 -2 10 -5 0 -9 9 -9 20 0 11 4 20 8 20
4 0 8 -6 8 -14z m75 -4 c-3 -3 -11 0 -18 7 -9 10 -8 11 6 5 10 -3 15 -9 12
-12z m744 5 c8 -11 6 -18 -10 -33 -20 -18 -20 -18 -10 8 5 14 7 29 4 32 -4 3
-4 6 -1 6 3 0 11 -6 17 -13z m701 3 c0 -5 -2 -10 -4 -10 -3 0 -8 5 -11 10 -3
6 -1 10 4 10 6 0 11 -4 11 -10z m-1050 -3 c0 -2 -10 -12 -22 -23 l-23 -19 19
23 c18 21 26 27 26 19z m180 -12 c0 -8 -7 -15 -15 -15 -26 0 -18 20 13 29 1 1
2 -6 2 -14z m208 -27 c-7 -19 -38 -22 -38 -4 0 10 9 16 21 16 12 0 19 -5 17
-12z m472 1 c0 -4 -11 -6 -25 -6 -14 0 -25 3 -25 8 0 5 11 8 25 7 14 -1 25 -5
25 -9z m-730 -9 c8 -5 11 -10 5 -10 -5 0 -17 5 -25 10 -8 5 -10 10 -5 10 6 0
17 -5 25 -10z m-667 -21 c-6 -6 -17 -8 -24 -3 -9 5 -8 9 7 14 23 9 31 3 17
-11z m502 11 c3 -5 1 -10 -4 -10 -6 0 -11 5 -11 10 0 6 2 10 4 10 3 0 8 -4 11
-10z m-425 -10 c3 -2 9 -2 13 -1 5 1 6 -3 2 -9 -3 -5 -17 -7 -29 -4 -16 4 -25
0 -29 -10 -4 -9 -16 -16 -27 -16 -20 0 -20 1 -3 24 16 21 43 27 73 16z m144
-4 c-6 -15 -54 -40 -54 -27 0 9 40 40 52 40 4 1 5 -5 2 -13z m1371 -5 c-3 -6
-11 -11 -17 -11 -6 0 -6 6 2 15 14 17 26 13 15 -4z m-325 -17 c0 -8 -4 -12
-10 -9 -5 3 -10 10 -10 16 0 5 5 9 10 9 6 0 10 -7 10 -16z m405 -2 c-3 -3 -11
0 -18 7 -9 10 -8 11 6 5 10 -3 15 -9 12 -12z m-1745 -12 c0 -5 -2 -10 -4 -10
-3 0 -8 5 -11 10 -3 6 -1 10 4 10 6 0 11 -4 11 -10z m130 -4 c0 -3 -4 -8 -10
-11 -5 -3 -10 -1 -10 4 0 6 5 11 10 11 6 0 10 -2 10 -4z m570 -22 c0 -8 -5
-12 -10 -9 -6 4 -8 11 -5 16 9 14 15 11 15 -7z m-518 -36 c-7 -7 -12 -8 -12
-2 0 14 12 26 19 19 2 -3 -1 -11 -7 -17z m-1607 -188 c3 -5 -3 -10 -14 -10
-12 0 -21 -5 -21 -12 0 -6 -2 -9 -5 -6 -3 3 -3 13 1 22 7 18 29 22 39 6z m965
-27 c59 -7 97 -7 101 -1 3 5 37 6 82 2 62 -5 77 -4 77 7 1 11 4 10 13 -3 8
-10 35 -19 72 -23 33 -4 157 -20 275 -35 118 -16 296 -39 395 -50 183 -22 199
-25 190 -40 -7 -11 117 -24 145 -15 14 5 20 3 16 -3 -4 -6 18 -13 57 -17 34
-3 70 -9 81 -12 12 -3 16 -1 12 6 -4 6 -3 11 3 11 5 0 11 -5 13 -10 2 -6 34
-16 71 -22 53 -9 89 -24 175 -74 117 -70 116 -72 -24 -54 -388 49 -1311 162
-1394 170 -129 12 -309 34 -454 55 -60 8 -111 15 -113 15 -2 0 -3 -6 -3 -13 0
-7 53 -44 118 -82 201 -118 200 -117 170 -111 -14 3 -59 24 -100 47 -40 23
-113 64 -161 91 l-89 50 -79 -6 c-43 -4 -79 -5 -79 -3 0 3 51 35 114 71 89 51
123 65 162 68 27 2 51 0 54 -3 3 -3 48 -10 100 -16z m2916 -114 c4 -8 1 -8
-14 0 -12 6 -24 16 -28 22 -4 8 -1 8 14 0 12 -6 24 -16 28 -22z m-1663 -26
c-7 -2 -19 -2 -25 0 -7 3 -2 5 12 5 14 0 19 -2 13 -5z m-2318 -53 c3 -5 0 -10
-8 -10 -8 0 -29 -3 -46 -6 -19 -4 -31 -2 -31 4 0 18 75 28 85 12z m-435 -140
c0 -5 -4 -10 -10 -10 -5 0 -10 5 -10 10 0 6 5 10 10 10 6 0 10 -4 10 -10z
m155 -75 c-10 -19 -22 -35 -27 -35 -12 0 -10 18 3 25 5 4 15 18 20 32 5 14 13
23 16 19 4 -4 -1 -22 -12 -41z m-98 -27 c-3 -8 -6 -5 -6 6 -1 11 2 17 5 13 3
-3 4 -12 1 -19z m170 -40 c-3 -7 -5 -2 -5 12 0 14 2 19 5 13 2 -7 2 -19 0 -25z
m-210 0 c-3 -8 -6 -5 -6 6 -1 11 2 17 5 13 3 -3 4 -12 1 -19z m386 -33 c-3 -9
-8 -14 -10 -11 -3 3 -2 9 2 15 9 16 15 13 8 -4z m49 -27 c-11 -11 -32 -3 -32
12 0 4 9 6 21 3 13 -4 17 -9 11 -15z m103 -42 c22 -14 54 -32 72 -41 38 -20
56 -40 51 -57 -3 -8 -12 -4 -26 10 -12 12 -29 22 -38 22 -8 0 -12 5 -9 10 3 6
-3 10 -15 10 -11 0 -23 7 -26 15 -4 8 -10 13 -14 10 -5 -3 -21 6 -36 20 -35
32 -12 32 41 1z m-172 -46 c5 -19 -17 -48 -26 -33 -5 8 9 53 17 53 2 0 6 -9 9
-20z m-413 -81 c0 -5 -7 -9 -15 -9 -15 0 -20 12 -9 23 8 8 24 -1 24 -14z m144
-4 c3 -8 1 -15 -4 -15 -6 0 -10 7 -10 15 0 8 2 15 4 15 2 0 6 -7 10 -15z m741
-44 c12 -5 27 -16 34 -25 7 -9 19 -16 25 -16 7 0 39 -14 71 -32 55 -30 57 -32
36 -42 -15 -7 -25 -6 -29 1 -8 11 -82 60 -127 83 -59 30 -95 55 -95 67 0 9 11
6 33 -7 17 -11 41 -24 52 -29z m-870 -1 c3 -6 -1 -17 -9 -26 -9 -8 -16 -18
-16 -21 0 -4 3 -3 7 0 3 4 12 2 20 -4 10 -9 13 -7 13 10 0 11 4 21 10 21 5 0
8 -20 7 -45 -1 -31 -6 -45 -16 -45 -10 0 -12 -9 -8 -36 5 -31 4 -34 -9 -23 -8
7 -13 18 -10 26 3 8 1 11 -4 8 -6 -3 -10 -2 -10 4 0 5 5 13 11 17 7 4 7 9 2
13 -13 8 -43 98 -35 105 9 10 40 7 47 -4z m817 -52 c-8 -8 -9 -4 -5 13 4 13 8
18 11 10 2 -7 -1 -18 -6 -23z m1638 13 c0 -11 57 -12 106 -1 26 6 48 9 51 7 2
-3 -27 -22 -64 -44 -92 -54 -116 -67 -110 -55 4 5 -2 31 -12 59 l-18 50 23 -5
c13 -2 24 -7 24 -11z m-2245 -31 c3 -5 -1 -10 -10 -10 -9 0 -13 5 -10 10 3 6
8 10 10 10 2 0 7 -4 10 -10z m-148 -47 c-3 -10 -5 -4 -5 12 0 17 2 24 5 18 2
-7 2 -21 0 -30z m1052 -11 c5 -10 22 -24 38 -32 15 -8 55 -31 88 -50 33 -19
71 -41 85 -48 14 -7 35 -21 48 -30 22 -17 22 -19 8 -57 l-15 -40 0 32 c-1 26
-8 35 -48 58 -27 15 -56 35 -65 43 -10 8 -18 11 -18 6 0 -5 -4 -4 -8 1 -10 14
-120 85 -131 85 -17 0 -33 38 -18 43 21 9 26 7 36 -11z m-1063 -28 c2 -16 6
-34 9 -41 6 -18 -22 -4 -29 14 -6 15 3 67 11 60 2 -3 6 -17 9 -33z m35 -9 c11
7 11 3 3 -19 -9 -24 -24 -9 -23 22 1 17 3 21 6 9 2 -9 9 -15 14 -12z m65 -20
c9 -19 14 -42 10 -50 -3 -8 -1 -15 4 -15 6 0 10 -4 10 -8 0 -14 -29 -10 -34 5
-3 7 -1 13 3 13 14 0 -1 43 -21 61 -22 20 -23 29 -3 29 8 0 22 -16 31 -35z
m86 -72 l-6 -28 -6 25 c-7 27 -3 43 9 35 5 -2 6 -17 3 -32z m848 -64 c0 -6 -4
-7 -10 -4 -5 3 -10 11 -10 16 0 6 5 7 10 4 6 -3 10 -11 10 -16z m375 1 c3 -5
1 -10 -4 -10 -6 0 -11 5 -11 10 0 6 2 10 4 10 3 0 8 -4 11 -10z m69 -65 c20
-14 41 -25 46 -25 6 0 10 -4 10 -9 0 -5 29 -24 64 -41 69 -35 74 -47 46 -110
-10 -23 -10 -22 -6 11 4 34 1 39 -40 68 -25 17 -55 31 -68 31 -16 0 -26 7 -29
21 -3 12 -10 18 -17 14 -6 -4 -17 1 -24 11 -13 16 -14 16 -26 -7 l-13 -24 -8
28 c-9 33 -2 57 16 57 7 0 29 -11 49 -25z m-238 -9 c0 -14 -5 -21 -9 -17 -4 4
-5 15 -1 24 9 24 12 21 10 -7z m-146 -16 c0 -5 -2 -10 -4 -10 -3 0 -8 5 -11
10 -3 6 -1 10 4 10 6 0 11 -4 11 -10z m-549 -76 c-7 -31 -9 -34 -10 -12 -1 27
9 62 15 55 3 -2 0 -22 -5 -43z m1679 12 c0 -5 -69 -46 -78 -46 -6 1 69 50 76
50 1 0 2 -2 2 -4z m-650 -22 c0 -3 -6 -12 -14 -20 -16 -15 -32 -2 -21 16 7 11
35 14 35 4z m177 -45 c1 -23 -2 -37 -8 -34 -5 4 -6 12 -3 18 5 9 3 9 -6 0 -11
-10 -11 -15 0 -28 8 -9 8 -15 2 -15 -18 0 -40 40 -34 63 15 57 47 54 49 -4z
m-1137 11 c0 -5 -2 -10 -4 -10 -3 0 -8 5 -11 10 -3 6 -1 10 4 10 6 0 11 -4 11
-10z m1173 -57 c-1 -10 7 -24 17 -31 16 -10 18 -9 14 3 -7 18 17 20 34 3 7 -7
12 -8 12 -4 0 5 7 3 16 -5 8 -7 43 -27 77 -45 95 -50 88 -67 -10 -22 -11 6
-26 7 -32 4 -17 -11 -13 -77 6 -98 16 -17 17 -17 28 4 6 13 8 25 4 28 -5 3 1
11 12 18 19 12 20 11 14 -10 -5 -20 -4 -20 5 -5 12 18 40 24 40 8 0 -5 -7 -16
-15 -25 -8 -8 -15 -19 -15 -25 0 -15 -17 -14 -23 2 -3 6 -6 -1 -6 -16 -1 -18
3 -26 10 -21 7 4 9 -11 4 -52 -9 -69 -15 -82 -15 -32 0 23 -6 38 -15 42 -11 4
-15 -2 -15 -27 0 -23 -3 -28 -9 -18 -5 8 -7 29 -4 48 3 20 1 33 -5 33 -24 0
-37 106 -18 151 5 11 1 19 -9 23 -10 3 -18 -1 -22 -12 -11 -29 -41 -63 -47
-53 -4 5 0 13 7 18 8 4 17 22 21 38 5 24 4 26 -4 12 -9 -13 -15 -15 -30 -7
-18 10 -40 -4 -26 -17 8 -8 -12 -43 -25 -43 -6 0 -8 27 -5 73 3 39 5 76 6 80
0 5 6 7 13 4 6 -2 11 -13 10 -24z m-1021 -43 c5 12 7 12 7 -2 1 -10 -6 -18
-14 -18 -8 0 -15 4 -15 9 0 5 -2 24 -5 42 -5 32 -4 31 8 -6 9 -27 15 -35 19
-25z m2395 30 c18 -36 16 -78 -7 -145 -11 -32 -20 -76 -20 -98 0 -39 -1 -40
-16 -21 -8 10 -13 13 -9 7 4 -9 -2 -13 -17 -13 -17 0 -19 3 -10 9 16 10 12 43
-5 49 -8 2 -13 -5 -13 -17 0 -17 -5 -20 -32 -17 -18 2 -42 -3 -55 -11 l-23
-15 -2 63 c-1 35 -2 80 -2 101 -1 20 2 34 7 31 4 -2 7 0 7 5 0 5 28 21 62 36
34 15 68 36 76 47 18 26 43 21 59 -11z m-2337 -41 c21 -41 26 -74 10 -64 -6 4
-8 11 -5 16 3 5 -1 6 -9 3 -11 -4 -16 0 -16 11 0 9 5 13 10 10 23 -14 7 18
-22 45 -27 25 -28 28 -9 23 12 -3 31 -23 41 -44z m915 20 c11 -17 2 -18 -19
-3 -17 12 -17 14 -4 14 9 0 20 -5 23 -11z m-18 -51 c-3 -7 -5 -2 -5 12 0 14 2
19 5 13 2 -7 2 -19 0 -25z m-823 -6 c-7 -4 -14 -18 -17 -32 -4 -21 -4 -20 -6
8 -1 24 3 32 17 32 11 0 13 -3 6 -8z m131 -22 c3 -5 1 -10 -4 -10 -6 0 -11 5
-11 10 0 6 2 10 4 10 3 0 8 -4 11 -10z m911 -42 c2 -30 1 -31 -12 -13 -8 10
-14 30 -14 44 0 38 24 9 26 -31z m-229 10 c-3 -8 -6 -5 -6 6 -1 11 2 17 5 13
3 -3 4 -12 1 -19z m-792 -8 c3 -5 1 -10 -4 -10 -6 0 -11 5 -11 10 0 6 2 10 4
10 3 0 8 -4 11 -10z m1122 -21 c-3 -12 0 -22 9 -26 8 -3 14 -11 14 -19 0 -17
-17 -18 -23 -1 -3 6 -11 -3 -19 -21 -15 -34 -28 -33 -28 1 0 19 37 87 47 87 3
0 3 -9 0 -21z m-285 -11 c-7 -7 -12 -8 -12 -2 0 6 3 14 7 17 3 4 9 5 12 2 2
-3 -1 -11 -7 -17z m-638 -22 c7 3 18 -7 24 -21 l12 -25 -35 23 c-19 12 -35 26
-35 32 0 5 5 4 11 -2 6 -6 17 -9 23 -7z m666 -19 c0 -5 -4 -5 -10 -2 -5 3 -10
14 -10 23 0 15 2 15 10 2 5 -8 10 -19 10 -23z m-526 -2 c-4 -8 -8 -15 -10 -15
-2 0 -4 7 -4 15 0 8 4 15 10 15 5 0 7 -7 4 -15z m-154 -16 c0 -6 -4 -7 -10 -4
-5 3 -10 11 -10 16 0 6 5 7 10 4 6 -3 10 -11 10 -16z m927 -31 c-3 -8 -6 -5
-6 6 -1 11 2 17 5 13 3 -3 4 -12 1 -19z m-730 -20 c-3 -8 -6 -5 -6 6 -1 11 2
17 5 13 3 -3 4 -12 1 -19z m-42 2 c4 -6 1 -9 -7 -8 -8 2 -13 -7 -13 -24 1 -14
-3 -24 -7 -22 -13 8 -9 52 5 57 6 3 13 6 14 6 1 1 5 -4 8 -9z m788 -55 c17
-24 17 -24 0 -18 -18 7 -33 22 -33 36 0 14 15 6 33 -18z m-103 -11 c0 -8 -4
-12 -10 -9 -5 3 -10 10 -10 16 0 5 5 9 10 9 6 0 10 -7 10 -16z m116 -47 c5 -7
1 -6 -10 3 -16 12 -20 11 -36 -10 -10 -14 -16 -29 -13 -35 2 -5 -3 -1 -11 9
-9 11 -16 27 -15 35 0 11 2 12 6 4 7 -19 20 -15 26 8 5 17 9 19 26 10 11 -6
23 -17 27 -24z m-276 1 c0 -11 -12 -10 -30 2 -12 7 -10 9 8 7 12 0 22 -5 22
-9z m177 -20 c-3 -7 -5 -2 -5 12 0 14 2 19 5 13 2 -7 2 -19 0 -25z m801 -61
c15 4 15 3 2 -6 -22 -15 -30 -14 -29 7 0 9 3 12 5 5 3 -7 13 -9 22 -6z m-874
-49 c-3 -13 -12 -26 -19 -30 -7 -5 -11 -18 -8 -30 4 -22 4 -23 -11 -4 -18 22
-21 46 -6 46 6 0 10 6 10 14 0 13 13 23 33 25 5 1 5 -9 1 -21z m146 -28 c-15
-28 -23 -20 -14 15 4 17 10 23 16 17 6 -6 6 -18 -2 -32z m885 30 c3 -5 2 -10
-4 -10 -5 0 -13 5 -16 10 -3 6 -2 10 4 10 5 0 13 -4 16 -10z m-185 -20 c0 -5
-5 -10 -11 -10 -5 0 -7 5 -4 10 3 6 8 10 11 10 2 0 4 -4 4 -10z m-753 -52 c-3
-7 -5 -2 -5 12 0 14 2 19 5 13 2 -7 2 -19 0 -25z m-42 -38 c1 -10 -2 -17 -7
-14 -4 3 -8 15 -8 26 0 26 13 15 15 -12z m115 -54 c0 -24 -17 -28 -23 -6 -3
13 0 20 9 20 8 0 14 -6 14 -14z m-90 -6 c0 -5 -4 -10 -10 -10 -5 0 -10 5 -10
10 0 6 5 10 10 10 6 0 10 -4 10 -10z m60 -20 c6 -11 8 -20 6 -20 -3 0 -10 9
-16 20 -6 11 -8 20 -6 20 3 0 10 -9 16 -20z"/>
<path d="M3088 3523 c7 -3 16 -2 19 1 4 3 -2 6 -13 5 -11 0 -14 -3 -6 -6z"/>
<path d="M3110 3485 c-8 -9 -8 -15 0 -20 5 -3 10 -2 10 4 0 6 6 8 14 5 8 -3
17 -1 20 4 9 15 -32 21 -44 7z"/>
<path d="M3603 3243 c11 -10 58 -13 52 -2 -4 5 -18 9 -32 9 -15 0 -23 -3 -20
-7z"/>
<path d="M115 2050 c3 -5 11 -10 16 -10 6 0 7 5 4 10 -3 6 -11 10 -16 10 -6 0
-7 -4 -4 -10z"/>
<path d="M3190 1316 c0 -2 7 -9 15 -16 9 -7 15 -8 15 -2 0 5 -7 12 -15 16 -8
3 -15 4 -15 2z"/>
<path d="M2167 3893 c-54 -30 -96 -57 -94 -60 3 -2 20 5 40 16 19 11 38 17 41
14 3 -4 6 -1 6 6 0 6 11 16 25 21 14 5 31 14 38 20 6 6 21 17 32 25 39 28 9
14 -88 -42z"/>
<path d="M2230 3853 c0 -13 5 -23 10 -23 13 0 13 11 0 30 -8 12 -10 11 -10 -7z"/>
<path d="M1975 3750 c-3 -6 1 -7 9 -4 18 7 21 14 7 14 -6 0 -13 -4 -16 -10z"/>
<path d="M1856 3691 c-3 -5 0 -11 8 -14 8 -3 17 1 20 9 6 15 -19 20 -28 5z"/>
<path d="M1698 3624 c-38 -20 -36 -28 2 -9 17 9 30 18 30 20 0 7 -1 6 -32 -11z"/>
<path d="M1628 3584 c-38 -20 -36 -28 2 -9 17 9 30 18 30 20 0 7 -1 6 -32 -11z"/>
<path d="M1533 3529 c-29 -17 -53 -33 -53 -36 0 -5 89 44 105 58 16 16 1 9
-52 -22z"/>
<path d="M1438 3474 c-38 -20 -36 -28 2 -9 17 9 30 18 30 20 0 7 -1 6 -32 -11z"/>
<path d="M1313 3402 c-45 -26 -85 -51 -90 -56 -10 -11 -9 -11 95 49 45 26 82
49 82 51 0 6 -1 6 -87 -44z"/>
<path d="M1123 3292 c-88 -51 -116 -72 -68 -50 26 11 57 30 142 85 45 29 1 8
-74 -35z"/>
<path d="M988 3214 c-38 -20 -36 -28 2 -9 17 9 30 18 30 20 0 7 -1 6 -32 -11z"/>
<path d="M918 3174 c-38 -20 -36 -28 2 -9 17 9 30 18 30 20 0 7 -1 6 -32 -11z"/>
<path d="M2820 1170 c0 -5 4 -10 9 -10 6 0 13 5 16 10 3 6 -1 10 -9 10 -9 0
-16 -4 -16 -10z"/>
<path d="M1986 867 c3 -10 9 -15 12 -12 3 3 0 11 -7 18 -10 9 -11 8 -5 -6z"/>
</g>
</svg>
